<?xml version="1.0" standalone="no"?>
<!DOCTYPE svg PUBLIC "-//W3C//DTD SVG 20010904//EN"
 "http://www.w3.org/TR/2001/REC-SVG-20010904/DTD/svg10.dtd">
<svg version="1.0" xmlns="http://www.w3.org/2000/svg"
 width="112.000000pt" height="108.000000pt" viewBox="0 0 112.000000 108.000000"
 preserveAspectRatio="xMidYMid meet">

<g transform="translate(0.000000,108.000000) scale(0.100000,-0.100000)"
fill="#000000" stroke="none">
<path d="M322 1054 c-65 -32 -126 -101 -162 -181 -5 -13 -16 -23 -24 -23 -23
0 -90 -34 -114 -57 l-22 -23 0 -385 0 -385 446 0 c353 0 444 3 438 12 -27 47
-52 72 -95 97 l-50 28 56 21 c31 12 75 35 98 50 23 16 56 32 72 36 39 10 65
34 65 61 0 12 11 32 25 45 29 27 31 42 10 63 -8 8 -12 17 -9 20 3 3 -4 24 -17
48 -16 32 -18 44 -9 47 7 3 30 20 51 39 l39 35 0 80 c0 43 -5 109 -11 146 -11
64 -14 69 -72 119 -34 31 -77 58 -101 65 -22 6 -54 20 -69 31 -25 17 -39 19
-110 13 -130 -10 -200 -9 -232 4 -16 7 -58 14 -92 16 -49 2 -71 -2 -111 -22z
m93 -5 c-73 -10 -109 -25 -99 -41 5 -7 3 -8 -5 -3 -16 9 -64 -36 -97 -92 -32
-55 -43 -56 -12 -2 29 52 110 126 152 138 17 5 51 9 76 9 42 0 41 -1 -15 -9z
m105 -9 c18 -12 2 -12 -25 0 -13 6 -15 9 -5 9 8 0 22 -4 30 -9z m138 -95 c-3
-3 -9 2 -12 12 -6 14 -5 15 5 6 7 -7 10 -15 7 -18z m-53 -5 c3 -6 -1 -7 -9 -4
-18 7 -21 14 -7 14 6 0 13 -4 16 -10z m28 -10 c3 -11 1 -18 -4 -14 -5 3 -9 12
-9 20 0 20 7 17 13 -6z m-68 -5 c24 -12 25 -13 5 -8 -14 4 -35 7 -47 8 -13 0
-23 3 -23 8 0 11 32 7 65 -8z m192 9 c-3 -3 -12 -4 -19 -1 -8 3 -5 6 6 6 11 1
17 -2 13 -5z m81 -1 c-10 -2 -28 -2 -40 0 -13 2 -5 4 17 4 22 1 32 -1 23 -4z
m-118 -7 c0 -2 -13 -6 -30 -8 -16 -3 -30 -1 -30 4 0 4 14 8 30 8 17 0 30 -2
30 -4z m183 -3 c-7 -2 -21 -2 -30 0 -10 3 -4 5 12 5 17 0 24 -2 18 -5z m-258
-43 c4 -6 -17 -9 -57 -8 l-63 2 54 3 c49 4 52 5 35 19 -18 14 -18 14 3 4 12
-5 25 -15 28 -20z m173 23 c-10 -2 -26 -2 -35 0 -10 3 -2 5 17 5 19 0 27 -2
18 -5z m-113 -11 l-29 -7 29 -20 c17 -11 37 -23 45 -27 13 -6 13 -7 0 -7 -8 0
-32 14 -54 32 l-38 33 38 1 c35 1 36 0 9 -5z m295 -24 c19 -10 26 -16 15 -13
-11 4 -54 7 -95 8 l-75 1 65 4 65 5 -60 13 -60 13 55 -6 c30 -3 71 -14 90 -25z
m-577 -38 c-29 -17 -55 -30 -59 -30 -8 0 57 45 77 53 37 15 29 4 -18 -23z
m195 13 c-15 -2 -42 -2 -60 0 -18 2 -6 4 27 4 33 0 48 -2 33 -4z m93 -20 c13
-15 12 -15 -6 -6 -11 6 -27 13 -35 16 -10 4 -8 6 6 6 12 1 28 -6 35 -16z m172
10 c-7 -2 -21 -2 -30 0 -10 3 -4 5 12 5 17 0 24 -2 18 -5z m100 0 c-7 -2 -19
-2 -25 0 -7 3 -2 5 12 5 14 0 19 -2 13 -5z m-540 -27 c-63 -36 -96 -42 -38 -7
28 16 57 30 65 30 8 1 -4 -10 -27 -23z m623 8 c19 -15 19 -15 -1 -6 -11 5 -27
12 -35 15 -13 5 -13 6 1 6 8 1 24 -6 35 -15z m-423 -1 c-7 -2 -19 -2 -25 0 -7
3 -2 5 12 5 14 0 19 -2 13 -5z m46 -30 c37 -10 55 -21 58 -34 5 -17 8 -18 22
-6 20 18 76 47 91 47 7 0 5 -9 -4 -22 -22 -31 -20 -68 6 -95 l22 -23 -35 6
c-106 20 -104 19 -102 45 3 23 3 23 -7 2 -11 -27 -93 -54 -159 -52 -28 1 -36
4 -21 6 37 7 60 32 60 66 0 37 -25 67 -57 67 -12 0 -23 5 -23 11 0 13 68 5
149 -18z m-2 21 c-3 -3 -12 -4 -19 -1 -8 3 -5 6 6 6 11 1 17 -2 13 -5z m148
-8 c-16 -7 -34 -11 -40 -8 -5 4 1 9 15 13 42 12 57 9 25 -5z m-339 -17 c-23
-18 -27 -28 -24 -62 2 -33 8 -44 28 -54 46 -23 -7 -14 -63 11 -62 27 -73 39
-52 56 8 7 12 17 8 23 -3 5 -1 7 4 4 6 -4 30 4 54 17 55 30 81 33 45 5z m572
6 c4 -4 -3 -4 -15 -1 -36 11 -27 -2 12 -18 62 -26 56 -68 -14 -85 -100 -25
-98 -25 -77 -2 23 25 23 76 1 101 -15 17 -14 18 35 15 28 -1 54 -6 58 -10z
m-283 -5 c3 -6 -1 -7 -10 -4 -11 5 -14 2 -9 -12 5 -16 4 -16 -5 -4 -6 8 -11
18 -11 23 0 11 28 9 35 -3z m-255 -10 c0 -5 -4 -10 -10 -10 -5 0 -10 5 -10 10
0 6 5 10 10 10 6 0 10 -4 10 -10z m370 0 c0 -5 -2 -10 -4 -10 -3 0 -8 5 -11
10 -3 6 -1 10 4 10 6 0 11 -4 11 -10z m-553 -6 c-3 -3 -12 -4 -19 -1 -8 3 -5
6 6 6 11 1 17 -2 13 -5z m233 -19 c0 -8 -4 -15 -9 -15 -13 0 -22 16 -14 24 11
11 23 6 23 -9z m370 5 c0 -5 -4 -10 -10 -10 -5 0 -10 5 -10 10 0 6 5 10 10 10
6 0 10 -4 10 -10z m-575 -10 c-3 -5 -14 -10 -23 -9 -14 0 -13 2 3 9 27 11 27
11 20 0z m36 -70 c58 -32 60 -39 3 -15 -29 12 -74 45 -61 45 2 0 28 -13 58
-30z m319 -14 c-14 -13 -111 -39 -118 -32 -3 3 104 42 123 45 5 0 3 -5 -5 -13z
m305 -20 c-9 -13 -24 -27 -33 -31 -12 -4 -10 0 6 18 12 13 19 27 15 30 -3 4 1
7 11 7 15 0 15 -2 1 -24z m-228 8 c-3 -3 -12 -4 -19 -1 -8 3 -5 6 6 6 11 1 17
-2 13 -5z m181 -1 c-10 -2 -26 -2 -35 0 -10 3 -2 5 17 5 19 0 27 -2 18 -5z
m-491 -9 c-3 -3 -12 -4 -19 -1 -8 3 -5 6 6 6 11 1 17 -2 13 -5z m416 -1 c-7
-2 -19 -2 -25 0 -7 3 -2 5 12 5 14 0 19 -2 13 -5z m-330 -10 c-7 -2 -19 -2
-25 0 -7 3 -2 5 12 5 14 0 19 -2 13 -5z m-99 -24 c-3 -5 -14 -5 -25 1 -26 14
-24 18 6 12 14 -2 22 -8 19 -13z m195 -5 c-13 -16 -62 -44 -76 -44 -4 1 9 10
30 21 20 11 37 24 37 29 0 6 5 10 11 10 8 0 7 -5 -2 -16z m-122 0 c-3 -3 -12
-4 -19 -1 -8 3 -5 6 6 6 11 1 17 -2 13 -5z m68 -3 c-18 -7 -55 -4 -55 5 0 2
17 4 38 3 28 0 32 -2 17 -8z m165 -1 c8 -5 11 -10 5 -10 -5 0 -17 5 -25 10 -8
5 -10 10 -5 10 6 0 17 -5 25 -10z m167 -6 c-3 -3 -12 -4 -19 -1 -8 3 -5 6 6 6
11 1 17 -2 13 -5z m-168 -33 c-6 -2 -18 4 -27 13 -15 15 -15 15 10 4 15 -7 23
-15 17 -17z m109 22 c-15 -2 -42 -2 -60 0 -18 2 -6 4 27 4 33 0 48 -2 33 -4z
m91 -48 c17 -20 31 -41 31 -48 0 -7 -9 2 -19 19 -11 18 -30 39 -42 48 -13 9
-18 16 -12 16 6 0 25 -16 42 -35z m-145 10 c11 -8 15 -15 10 -15 -6 0 -19 7
-30 15 -10 8 -14 14 -9 14 6 0 19 -6 29 -14z m79 8 c-7 -2 -21 -2 -30 0 -10 3
-4 5 12 5 17 0 24 -2 18 -5z m-397 -19 c15 6 16 4 7 -5 -14 -14 -43 -5 -43 13
0 10 3 9 9 -1 6 -9 16 -11 27 -7z m432 -19 c-3 -3 -9 2 -12 12 -6 14 -5 15 5
6 7 -7 10 -15 7 -18z m-503 -55 c28 -16 45 -30 39 -30 -13 0 -134 79 -134 87
0 3 10 -2 23 -11 12 -9 45 -29 72 -46z m148 -47 c-7 -2 -21 -2 -30 0 -10 3 -4
5 12 5 17 0 24 -2 18 -5z m-256 -75 c23 -12 40 -24 38 -26 -8 -8 -95 49 -105
68 -17 31 -11 37 7 8 10 -15 36 -38 60 -50z m306 65 c-7 -2 -19 -2 -25 0 -7 3
-2 5 12 5 14 0 19 -2 13 -5z m117 -9 c0 -2 -21 -4 -47 -3 -37 1 -42 3 -23 8
24 7 70 3 70 -5z m187 10 c-3 -3 -12 -4 -19 -1 -8 3 -5 6 6 6 11 1 17 -2 13
-5z m-44 -11 c-7 -2 -21 -2 -30 0 -10 3 -4 5 12 5 17 0 24 -2 18 -5z m-450
-100 c15 -3 27 -9 27 -14 0 -4 -20 -1 -45 8 -25 8 -45 17 -45 20 0 3 8 2 18
-2 9 -3 29 -9 45 -12z m80 -20 c-7 -2 -19 -2 -25 0 -7 3 -2 5 12 5 14 0 19 -2
13 -5z m50 -10 c-7 -2 -19 -2 -25 0 -7 3 -2 5 12 5 14 0 19 -2 13 -5z m100
-10 c-13 -2 -35 -2 -50 0 -16 2 -5 4 22 4 28 0 40 -2 28 -4z m-593 -25 c0 -6
-6 -5 -15 2 -8 7 -15 14 -15 16 0 2 7 1 15 -2 8 -4 15 -11 15 -16z m800 17 c0
-2 -10 -9 -21 -16 -14 -7 -19 -7 -15 -1 4 7 -14 11 -55 11 -33 0 -63 2 -67 5
-3 3 31 6 76 6 45 0 82 -2 82 -5z m-740 -40 c19 -7 28 -14 20 -14 -8 0 -28 6
-45 14 -39 17 -21 18 25 0z m686 7 c-3 -5 -24 -15 -48 -22 -24 -7 -47 -17 -52
-22 -6 -4 -24 -7 -40 -7 -27 2 -28 2 -6 6 14 2 32 7 40 10 20 8 104 41 108 42
2 1 1 -3 -2 -7z m-617 -52 c18 0 22 -3 14 -11 -8 -8 -25 -7 -65 6 -67 22 -87
39 -23 19 27 -7 60 -14 74 -14z m66 20 c42 -11 1 -11 -50 -1 -34 7 -35 9 -10
9 17 0 44 -4 60 -8z m145 -16 c0 -2 -18 -4 -41 -4 -22 0 -38 4 -35 8 5 8 76 4
76 -4z m163 -11 c-23 -2 -64 -2 -90 0 -26 2 -7 3 42 3 50 0 71 -1 48 -3z
m-279 -11 c3 -5 -14 -9 -37 -10 -30 -1 -38 1 -27 8 19 12 57 13 64 2z m235
-12 c63 0 112 -2 110 -4 -21 -20 -329 -13 -329 7 0 6 20 7 53 3 28 -3 103 -6
166 -6z"/>
</g>
</svg>
